v -0.7 -0.053 0.044
v -0.7 0.053 0.044
v -0.7 0.053 0.056
v -0.7 -0.053 0.056
v -0.675 -0.05201785714 0.04358048877
v -0.675 0.05201785714 0.04358048877
v -0.675 0.05201785714 0.05558048877
v -0.675 -0.05201785714 0.05558048877
v -0.65 -0.05107142857 0.03998300164
v -0.65 0.05107142857 0.03998300164
v -0.65 0.05107142857 0.05198300164
v -0.65 -0.05107142857 0.05198300164
v -0.625 -0.05016071429 0.03249306836
v -0.625 0.05016071429 0.03249306836
v -0.625 0.05016071429 0.04449306836
v -0.625 -0.05016071429 0.04449306836
v -0.6 -0.04928571429 0.02228999528
v -0.6 0.04928571429 0.02228999528
v -0.6 0.04928571429 0.03428999528
v -0.6 -0.04928571429 0.03428999528
v -0.575 -0.04844642857 0.0115860578
v -0.575 0.04844642857 0.0115860578
v -0.575 0.04844642857 0.0235860578
v -0.575 -0.04844642857 0.0235860578
v -0.55 -0.04764285714 0.002765692866
v -0.55 0.04764285714 0.002765692866
v -0.55 0.04764285714 0.01476569287
v -0.55 -0.04764285714 0.01476569287
v -0.525 -0.046875 -0.002475308642
v -0.525 0.046875 -0.002475308642
v -0.525 0.046875 0.009524691358
v -0.525 -0.046875 0.009524691358
v -0.5 -0.04614285714 -0.003990609439
v -0.5 0.04614285714 -0.003990609439
v -0.5 0.04614285714 0.008009390561
v -0.5 -0.04614285714 0.008009390561
v -0.475 -0.04544642857 -0.003841836735
v -0.475 0.04544642857 -0.003841836735
v -0.475 0.04544642857 0.008158163265
v -0.475 -0.04544642857 0.008158163265
v -0.45 -0.04478571429 -0.003653061224
v -0.45 0.04478571429 -0.003653061224
v -0.45 0.04478571429 0.008346938776
v -0.45 -0.04478571429 0.008346938776
v -0.425 -0.04416071429 -0.003474489796
v -0.425 0.04416071429 -0.003474489796
v -0.425 0.04416071429 0.008525510204
v -0.425 -0.04416071429 0.008525510204
v -0.4 -0.04357142857 -0.003306122449
v -0.4 0.04357142857 -0.003306122449
v -0.4 0.04357142857 0.008693877551
v -0.4 -0.04357142857 0.008693877551
v -0.375 -0.04301785714 -0.003147959184
v -0.375 0.04301785714 -0.003147959184
v -0.375 0.04301785714 0.008852040816
v -0.375 -0.04301785714 0.008852040816
v -0.35 -0.0425 -0.003
v -0.35 0.0425 -0.003
v -0.35 0.0425 0.009
v -0.35 -0.0425 0.009
v -0.325 -0.04201785714 -0.002862244898
v -0.325 0.04201785714 -0.002862244898
v -0.325 0.04201785714 0.009137755102
v -0.325 -0.04201785714 0.009137755102
v -0.3 -0.04157142857 -0.002734693878
v -0.3 0.04157142857 -0.002734693878
v -0.3 0.04157142857 0.009265306122
v -0.3 -0.04157142857 0.009265306122
v -0.275 -0.04116071429 -0.002617346939
v -0.275 0.04116071429 -0.002617346939
v -0.275 0.04116071429 0.009382653061
v -0.275 -0.04116071429 0.009382653061
v -0.25 -0.04078571429 -0.002510204082
v -0.25 0.04078571429 -0.002510204082
v -0.25 0.04078571429 0.009489795918
v -0.25 -0.04078571429 0.009489795918
v -0.225 -0.04044642857 -0.002413265306
v -0.225 0.04044642857 -0.002413265306
v -0.225 0.04044642857 0.009586734694
v -0.225 -0.04044642857 0.009586734694
v -0.2 -0.04014285714 -0.002326530612
v -0.2 0.04014285714 -0.002326530612
v -0.2 0.04014285714 0.009673469388
v -0.2 -0.04014285714 0.009673469388
v -0.175 -0.039875 -0.00225
v -0.175 0.039875 -0.00225
v -0.175 0.039875 0.00975
v -0.175 -0.039875 0.00975
v -0.15 -0.03964285714 -0.002183673469
v -0.15 0.03964285714 -0.002183673469
v -0.15 0.03964285714 0.009816326531
v -0.15 -0.03964285714 0.009816326531
v -0.125 -0.03944642857 -0.00212755102
v -0.125 0.03944642857 -0.00212755102
v -0.125 0.03944642857 0.00987244898
v -0.125 -0.03944642857 0.00987244898
v -0.1 -0.03928571429 -0.002081632653
v -0.1 0.03928571429 -0.002081632653
v -0.1 0.03928571429 0.009918367347
v -0.1 -0.03928571429 0.009918367347
v -0.075 -0.03916071429 -0.002045918367
v -0.075 0.03916071429 -0.002045918367
v -0.075 0.03916071429 0.009954081633
v -0.075 -0.03916071429 0.009954081633
v -0.05 -0.03907142857 -0.002020408163
v -0.05 0.03907142857 -0.002020408163
v -0.05 0.03907142857 0.009979591837
v -0.05 -0.03907142857 0.009979591837
v -0.025 -0.03901785714 -0.002005102041
v -0.025 0.03901785714 -0.002005102041
v -0.025 0.03901785714 0.009994897959
v -0.025 -0.03901785714 0.009994897959
v 0 -0.039 -0.002
v 0 0.039 -0.002
v 0 0.039 0.01
v 0 -0.039 0.01
v 0.025 -0.03902168367 -0.002005102041
v 0.025 0.03902168367 -0.002005102041
v 0.025 0.03902168367 0.009994897959
v 0.025 -0.03902168367 0.009994897959
v 0.05 -0.03908673469 -0.002020408163
v 0.05 0.03908673469 -0.002020408163
v 0.05 0.03908673469 0.009979591837
v 0.05 -0.03908673469 0.009979591837
v 0.075 -0.03919515306 -0.002045918367
v 0.075 0.03919515306 -0.002045918367
v 0.075 0.03919515306 0.009954081633
v 0.075 -0.03919515306 0.009954081633
v 0.1 -0.03934693878 -0.002081632653
v 0.1 0.03934693878 -0.002081632653
v 0.1 0.03934693878 0.009918367347
v 0.1 -0.03934693878 0.009918367347
v 0.125 -0.03954209184 -0.00212755102
v 0.125 0.03954209184 -0.00212755102
v 0.125 0.03954209184 0.00987244898
v 0.125 -0.03954209184 0.00987244898
v 0.15 -0.03978061224 -0.002183673469
v 0.15 0.03978061224 -0.002183673469
v 0.15 0.03978061224 0.009816326531
v 0.15 -0.03978061224 0.009816326531
v 0.175 -0.0400625 -0.00225
v 0.175 0.0400625 -0.00225
v 0.175 0.0400625 0.00975
v 0.175 -0.0400625 0.00975
v 0.2 -0.0403877551 -0.002326530612
v 0.2 0.0403877551 -0.002326530612
v 0.2 0.0403877551 0.009673469388
v 0.2 -0.0403877551 0.009673469388
v 0.225 -0.04075637755 -0.002413265306
v 0.225 0.04075637755 -0.002413265306
v 0.225 0.04075637755 0.009586734694
v 0.225 -0.04075637755 0.009586734694
v 0.25 -0.04116836735 -0.002510204082
v 0.25 0.04116836735 -0.002510204082
v 0.25 0.04116836735 0.009489795918
v 0.25 -0.04116836735 0.009489795918
v 0.275 -0.04162372449 -0.002617346939
v 0.275 0.04162372449 -0.002617346939
v 0.275 0.04162372449 0.009382653061
v 0.275 -0.04162372449 0.009382653061
v 0.3 -0.04212244898 -0.002734693878
v 0.3 0.04212244898 -0.002734693878
v 0.3 0.04212244898 0.009265306122
v 0.3 -0.04212244898 0.009265306122
v 0.325 -0.04266454082 -0.002862244898
v 0.325 0.04266454082 -0.002862244898
v 0.325 0.04266454082 0.009137755102
v 0.325 -0.04266454082 0.009137755102
v 0.35 -0.04325 -0.003
v 0.35 0.04325 -0.003
v 0.35 0.04325 0.009
v 0.35 -0.04325 0.009
v 0.375 -0.04387882653 -0.003147959184
v 0.375 0.04387882653 -0.003147959184
v 0.375 0.04387882653 0.008852040816
v 0.375 -0.04387882653 0.008852040816
v 0.4 -0.04455102041 -0.003306122449
v 0.4 0.04455102041 -0.003306122449
v 0.4 0.04455102041 0.008693877551
v 0.4 -0.04455102041 0.008693877551
v 0.425 -0.04526658163 -0.003474489796
v 0.425 0.04526658163 -0.003474489796
v 0.425 0.04526658163 0.008525510204
v 0.425 -0.04526658163 0.008525510204
v 0.45 -0.0460255102 -0.003653061224
v 0.45 0.0460255102 -0.003653061224
v 0.45 0.0460255102 0.008346938776
v 0.45 -0.0460255102 0.008346938776
v 0.475 -0.04682780612 -0.003841836735
v 0.475 0.04682780612 -0.003841836735
v 0.475 0.04682780612 0.008158163265
v 0.475 -0.04682780612 0.008158163265
v 0.5 -0.04767346939 -0.003975547373
v 0.5 0.04767346939 -0.003975547373
v 0.5 0.04767346939 0.008024452627
v 0.5 -0.04767346939 0.008024452627
v 0.525 -0.0485625 -0.001942901235
v 0.525 0.0485625 -0.001942901235
v 0.525 0.0485625 0.01005709877
v 0.525 -0.0485625 0.01005709877
v 0.55 -0.04949489796 0.004936217052
v 0.55 0.04949489796 0.004936217052
v 0.55 0.04949489796 0.01693621705
v 0.55 -0.04949489796 0.01693621705
v 0.575 -0.05047066327 0.01647156902
v 0.575 0.05047066327 0.01647156902
v 0.575 0.05047066327 0.02847156902
v 0.575 -0.05047066327 0.02847156902
v 0.6 -0.05148979592 0.03045862651
v 0.6 0.05148979592 0.03045862651
v 0.6 0.05148979592 0.04245862651
v 0.6 -0.05148979592 0.04245862651
v 0.625 -0.05255229592 0.04379762153
v 0.625 0.05255229592 0.04379762153
v 0.625 0.05255229592 0.05579762153
v 0.625 -0.05255229592 0.05579762153
v 0.65 -0.05365816327 0.05361259602
v 0.65 0.05365816327 0.05361259602
v 0.65 0.05365816327 0.06561259602
v 0.65 -0.05365816327 0.06561259602
v 0.675 -0.05480739796 0.05837045172
v 0.675 0.05480739796 0.05837045172
v 0.675 0.05480739796 0.07037045172
v 0.675 -0.05480739796 0.07037045172
v 0.7 -0.056 0.059
v 0.7 0.056 0.059
v 0.7 0.056 0.071
v 0.7 -0.056 0.071
f 1 3 2
f 1 4 3
f 225 226 227
f 225 227 228
f 1 2 6
f 1 6 5
f 2 3 7
f 2 7 6
f 3 4 8
f 3 8 7
f 4 1 5
f 4 5 8
f 5 6 10
f 5 10 9
f 6 7 11
f 6 11 10
f 7 8 12
f 7 12 11
f 8 5 9
f 8 9 12
f 9 10 14
f 9 14 13
f 10 11 15
f 10 15 14
f 11 12 16
f 11 16 15
f 12 9 13
f 12 13 16
f 13 14 18
f 13 18 17
f 14 15 19
f 14 19 18
f 15 16 20
f 15 20 19
f 16 13 17
f 16 17 20
f 17 18 22
f 17 22 21
f 18 19 23
f 18 23 22
f 19 20 24
f 19 24 23
f 20 17 21
f 20 21 24
f 21 22 26
f 21 26 25
f 22 23 27
f 22 27 26
f 23 24 28
f 23 28 27
f 24 21 25
f 24 25 28
f 25 26 30
f 25 30 29
f 26 27 31
f 26 31 30
f 27 28 32
f 27 32 31
f 28 25 29
f 28 29 32
f 29 30 34
f 29 34 33
f 30 31 35
f 30 35 34
f 31 32 36
f 31 36 35
f 32 29 33
f 32 33 36
f 33 34 38
f 33 38 37
f 34 35 39
f 34 39 38
f 35 36 40
f 35 40 39
f 36 33 37
f 36 37 40
f 37 38 42
f 37 42 41
f 38 39 43
f 38 43 42
f 39 40 44
f 39 44 43
f 40 37 41
f 40 41 44
f 41 42 46
f 41 46 45
f 42 43 47
f 42 47 46
f 43 44 48
f 43 48 47
f 44 41 45
f 44 45 48
f 45 46 50
f 45 50 49
f 46 47 51
f 46 51 50
f 47 48 52
f 47 52 51
f 48 45 49
f 48 49 52
f 49 50 54
f 49 54 53
f 50 51 55
f 50 55 54
f 51 52 56
f 51 56 55
f 52 49 53
f 52 53 56
f 53 54 58
f 53 58 57
f 54 55 59
f 54 59 58
f 55 56 60
f 55 60 59
f 56 53 57
f 56 57 60
f 57 58 62
f 57 62 61
f 58 59 63
f 58 63 62
f 59 60 64
f 59 64 63
f 60 57 61
f 60 61 64
f 61 62 66
f 61 66 65
f 62 63 67
f 62 67 66
f 63 64 68
f 63 68 67
f 64 61 65
f 64 65 68
f 65 66 70
f 65 70 69
f 66 67 71
f 66 71 70
f 67 68 72
f 67 72 71
f 68 65 69
f 68 69 72
f 69 70 74
f 69 74 73
f 70 71 75
f 70 75 74
f 71 72 76
f 71 76 75
f 72 69 73
f 72 73 76
f 73 74 78
f 73 78 77
f 74 75 79
f 74 79 78
f 75 76 80
f 75 80 79
f 76 73 77
f 76 77 80
f 77 78 82
f 77 82 81
f 78 79 83
f 78 83 82
f 79 80 84
f 79 84 83
f 80 77 81
f 80 81 84
f 81 82 86
f 81 86 85
f 82 83 87
f 82 87 86
f 83 84 88
f 83 88 87
f 84 81 85
f 84 85 88
f 85 86 90
f 85 90 89
f 86 87 91
f 86 91 90
f 87 88 92
f 87 92 91
f 88 85 89
f 88 89 92
f 89 90 94
f 89 94 93
f 90 91 95
f 90 95 94
f 91 92 96
f 91 96 95
f 92 89 93
f 92 93 96
f 93 94 98
f 93 98 97
f 94 95 99
f 94 99 98
f 95 96 100
f 95 100 99
f 96 93 97
f 96 97 100
f 97 98 102
f 97 102 101
f 98 99 103
f 98 103 102
f 99 100 104
f 99 104 103
f 100 97 101
f 100 101 104
f 101 102 106
f 101 106 105
f 102 103 107
f 102 107 106
f 103 104 108
f 103 108 107
f 104 101 105
f 104 105 108
f 105 106 110
f 105 110 109
f 106 107 111
f 106 111 110
f 107 108 112
f 107 112 111
f 108 105 109
f 108 109 112
f 109 110 114
f 109 114 113
f 110 111 115
f 110 115 114
f 111 112 116
f 111 116 115
f 112 109 113
f 112 113 116
f 113 114 118
f 113 118 117
f 114 115 119
f 114 119 118
f 115 116 120
f 115 120 119
f 116 113 117
f 116 117 120
f 117 118 122
f 117 122 121
f 118 119 123
f 118 123 122
f 119 120 124
f 119 124 123
f 120 117 121
f 120 121 124
f 121 122 126
f 121 126 125
f 122 123 127
f 122 127 126
f 123 124 128
f 123 128 127
f 124 121 125
f 124 125 128
f 125 126 130
f 125 130 129
f 126 127 131
f 126 131 130
f 127 128 132
f 127 132 131
f 128 125 129
f 128 129 132
f 129 130 134
f 129 134 133
f 130 131 135
f 130 135 134
f 131 132 136
f 131 136 135
f 132 129 133
f 132 133 136
f 133 134 138
f 133 138 137
f 134 135 139
f 134 139 138
f 135 136 140
f 135 140 139
f 136 133 137
f 136 137 140
f 137 138 142
f 137 142 141
f 138 139 143
f 138 143 142
f 139 140 144
f 139 144 143
f 140 137 141
f 140 141 144
f 141 142 146
f 141 146 145
f 142 143 147
f 142 147 146
f 143 144 148
f 143 148 147
f 144 141 145
f 144 145 148
f 145 146 150
f 145 150 149
f 146 147 151
f 146 151 150
f 147 148 152
f 147 152 151
f 148 145 149
f 148 149 152
f 149 150 154
f 149 154 153
f 150 151 155
f 150 155 154
f 151 152 156
f 151 156 155
f 152 149 153
f 152 153 156
f 153 154 158
f 153 158 157
f 154 155 159
f 154 159 158
f 155 156 160
f 155 160 159
f 156 153 157
f 156 157 160
f 157 158 162
f 157 162 161
f 158 159 163
f 158 163 162
f 159 160 164
f 159 164 163
f 160 157 161
f 160 161 164
f 161 162 166
f 161 166 165
f 162 163 167
f 162 167 166
f 163 164 168
f 163 168 167
f 164 161 165
f 164 165 168
f 165 166 170
f 165 170 169
f 166 167 171
f 166 171 170
f 167 168 172
f 167 172 171
f 168 165 169
f 168 169 172
f 169 170 174
f 169 174 173
f 170 171 175
f 170 175 174
f 171 172 176
f 171 176 175
f 172 169 173
f 172 173 176
f 173 174 178
f 173 178 177
f 174 175 179
f 174 179 178
f 175 176 180
f 175 180 179
f 176 173 177
f 176 177 180
f 177 178 182
f 177 182 181
f 178 179 183
f 178 183 182
f 179 180 184
f 179 184 183
f 180 177 181
f 180 181 184
f 181 182 186
f 181 186 185
f 182 183 187
f 182 187 186
f 183 184 188
f 183 188 187
f 184 181 185
f 184 185 188
f 185 186 190
f 185 190 189
f 186 187 191
f 186 191 190
f 187 188 192
f 187 192 191
f 188 185 189
f 188 189 192
f 189 190 194
f 189 194 193
f 190 191 195
f 190 195 194
f 191 192 196
f 191 196 195
f 192 189 193
f 192 193 196
f 193 194 198
f 193 198 197
f 194 195 199
f 194 199 198
f 195 196 200
f 195 200 199
f 196 193 197
f 196 197 200
f 197 198 202
f 197 202 201
f 198 199 203
f 198 203 202
f 199 200 204
f 199 204 203
f 200 197 201
f 200 201 204
f 201 202 206
f 201 206 205
f 202 203 207
f 202 207 206
f 203 204 208
f 203 208 207
f 204 201 205
f 204 205 208
f 205 206 210
f 205 210 209
f 206 207 211
f 206 211 210
f 207 208 212
f 207 212 211
f 208 205 209
f 208 209 212
f 209 210 214
f 209 214 213
f 210 211 215
f 210 215 214
f 211 212 216
f 211 216 215
f 212 209 213
f 212 213 216
f 213 214 218
f 213 218 217
f 214 215 219
f 214 219 218
f 215 216 220
f 215 220 219
f 216 213 217
f 216 217 220
f 217 218 222
f 217 222 221
f 218 219 223
f 218 223 222
f 219 220 224
f 219 224 223
f 220 217 221
f 220 221 224
f 221 222 226
f 221 226 225
f 222 223 227
f 222 227 226
f 223 224 228
f 223 228 227
f 224 221 225
f 224 225 228
