v -0.1 -0.04157142857 -0.002734693878
v -0.1 0.04157142857 -0.002734693878
v -0.1 0.04157142857 0.009265306122
v -0.1 -0.04157142857 0.009265306122
v -0.075 -0.04116071429 -0.002617346939
v -0.075 0.04116071429 -0.002617346939
v -0.075 0.04116071429 0.009382653061
v -0.075 -0.04116071429 0.009382653061
v -0.05 -0.04078571429 -0.002510204082
v -0.05 0.04078571429 -0.002510204082
v -0.05 0.04078571429 0.009489795918
v -0.05 -0.04078571429 0.009489795918
v -0.025 -0.04044642857 -0.002413265306
v -0.025 0.04044642857 -0.002413265306
v -0.025 0.04044642857 0.009586734694
v -0.025 -0.04044642857 0.009586734694
v 0 -0.04014285714 -0.002326530612
v 0 0.04014285714 -0.002326530612
v 0 0.04014285714 0.009673469388
v 0 -0.04014285714 0.009673469388
v 0.025 -0.039875 -0.00225
v 0.025 0.039875 -0.00225
v 0.025 0.039875 0.00975
v 0.025 -0.039875 0.00975
v 0.05 -0.03964285714 -0.002183673469
v 0.05 0.03964285714 -0.002183673469
v 0.05 0.03964285714 0.009816326531
v 0.05 -0.03964285714 0.009816326531
v 0.075 -0.03944642857 -0.00212755102
v 0.075 0.03944642857 -0.00212755102
v 0.075 0.03944642857 0.00987244898
v 0.075 -0.03944642857 0.00987244898
v 0.1 -0.03928571429 -0.002081632653
v 0.1 0.03928571429 -0.002081632653
v 0.1 0.03928571429 0.009918367347
v 0.1 -0.03928571429 0.009918367347
f 1 3 2
f 1 4 3
f 33 34 35
f 33 35 36
f 1 2 6
f 1 6 5
f 2 3 7
f 2 7 6
f 3 4 8
f 3 8 7
f 4 1 5
f 4 5 8
f 5 6 10
f 5 10 9
f 6 7 11
f 6 11 10
f 7 8 12
f 7 12 11
f 8 5 9
f 8 9 12
f 9 10 14
f 9 14 13
f 10 11 15
f 10 15 14
f 11 12 16
f 11 16 15
f 12 9 13
f 12 13 16
f 13 14 18
f 13 18 17
f 14 15 19
f 14 19 18
f 15 16 20
f 15 20 19
f 16 13 17
f 16 17 20
f 17 18 22
f 17 22 21
f 18 19 23
f 18 23 22
f 19 20 24
f 19 24 23
f 20 17 21
f 20 21 24
f 21 22 26
f 21 26 25
f 22 23 27
f 22 27 26
f 23 24 28
f 23 28 27
f 24 21 25
f 24 25 28
f 25 26 30
f 25 30 29
f 26 27 31
f 26 31 30
f 27 28 32
f 27 32 31
f 28 25 29
f 28 29 32
f 29 30 34
f 29 34 33
f 30 31 35
f 30 35 34
f 31 32 36
f 31 36 35
f 32 29 33
f 32 33 36
